<?xml version="1.0" encoding="UTF-8" standalone="no"?>
<svg width="18px" height="19px" viewBox="0 0 18 19" version="1.1" xmlns="http://www.w3.org/2000/svg" xmlns:xlink="http://www.w3.org/1999/xlink">
    <!-- Generator: Sketch 47.1 (45422) - http://www.bohemiancoding.com/sketch -->
    <title>Cautionmdpi/</title>
    <desc>Created with Sketch.</desc>
    <defs></defs>
    <g id="Page-1" stroke="none" stroke-width="1" fill="none" fill-rule="evenodd">
        <g id="FormFields---White" transform="translate(-36.000000, -917.000000)" fill="#C2061C">
            <g id="Group-10" transform="translate(36.000000, 878.000000)">
                <g id="Group" transform="translate(0.000000, 39.000000)">
                    <path d="M7.58488952,1.11114415 C8.36643346,0.329600209 9.62819623,0.324229899 10.4151105,1.11114415 L17.3888559,8.08488952 C18.1703998,8.86643346 18.1757701,10.1281962 17.3888559,10.9151105 L10.4151105,17.8888559 C9.63356654,18.6703998 8.37180377,18.6757701 7.58488952,17.8888559 L0.611144147,10.9151105 C-0.170399791,10.1335665 -0.175770101,8.87180377 0.611144147,8.08488952 L7.58488952,1.11114415 Z M9.04951675,14.6993383 C9.66484145,14.6993383 10.1636607,14.2005191 10.1636607,13.5851944 C10.1636607,12.9698697 9.66484145,12.4710505 9.04951675,12.4710505 C8.43419205,12.4710505 7.93537283,12.9698697 7.93537283,13.5851944 C7.93537283,14.2005191 8.43419205,14.6993383 9.04951675,14.6993383 Z M8.00964985,5.29101185 L8.00964985,10.4903502 C8.00964985,11.0373054 8.45304471,11.4807003 9,11.4807003 C9.54695529,11.4807003 9.99035015,11.0373054 9.99035015,10.4903502 L9.99035015,5.29101185 C9.99035015,4.74405656 9.54695529,4.30066169 9,4.30066169 C8.45304471,4.30066169 8.00964985,4.74405656 8.00964985,5.29101185 Z" id="Caution"></path>
                </g>
            </g>
        </g>
    </g>
</svg>