<?xml version="1.0" encoding="UTF-8" standalone="no"?>
<svg width="67px" height="65px" viewBox="0 0 67 65" version="1.1" xmlns="http://www.w3.org/2000/svg" xmlns:xlink="http://www.w3.org/1999/xlink">
    <!-- Generator: Sketch 47.1 (45422) - http://www.bohemiancoding.com/sketch -->
    <title>Contact</title>
    <desc>Created with Sketch.</desc>
    <defs></defs>
    <g id="Page-1" stroke="none" stroke-width="1" fill="none" fill-rule="evenodd">
        <g id="Contact" transform="translate(-9.000000, -4.000000)">
            <g id="Group-9" transform="translate(51.000000, 4.000000)" fill-rule="nonzero" fill="#087BB4">
                <path d="M0.904013335,3.84689002 L3.90516554,3.84689002 C4.31932455,3.84689002 4.65545359,3.49664531 4.65545359,3.06509381 C4.65545359,2.6335423 4.31932455,2.2832976 3.90516554,2.2832976 L0.904013335,2.2832976 C0.48985433,2.2832976 0.153725283,2.6335423 0.153725283,3.06509381 C0.153725283,3.49664531 0.48985433,3.84689002 0.904013335,3.84689002 Z" id="Shape" transform="translate(2.404589, 3.144166) scale(1, -1) rotate(-254.000000) translate(-2.404589, -3.144166) "></path>
                <path d="M14.020902,6.93588933 C14.2197772,6.93588933 14.4186525,6.85651915 14.5693627,6.69939861 L16.7678667,4.40900217 C17.0708407,4.09314128 17.0708407,3.57966485 16.7678667,3.26380396 C16.4648926,2.94794306 15.9723656,2.94794306 15.6693915,3.26380396 L13.4708875,5.55420039 C13.1679135,5.87006128 13.1679135,6.38353771 13.4708875,6.69939861 C13.6247051,6.85651915 13.8235804,6.93588933 14.020902,6.93588933 Z" id="Shape" transform="translate(15.119377, 4.981399) scale(1, -1) rotate(-254.000000) translate(-15.119377, -4.981399) "></path>
                <path d="M21.7217214,15.8391025 C22.1358804,15.8391025 22.4720094,15.4888578 22.4720094,15.0573063 L22.4720094,11.9301214 C22.4720094,11.4985699 22.1358804,11.1483252 21.7217214,11.1483252 C21.3075624,11.1483252 20.9714333,11.4985699 20.9714333,11.9301214 L20.9714333,15.0573063 C20.9714333,15.4888578 21.3075624,15.8391025 21.7217214,15.8391025 Z" id="Shape" transform="translate(21.819601, 13.493714) scale(1, -1) rotate(-254.000000) translate(-21.819601, -13.493714) "></path>
                <path d="M21.5574351,26.0728584 C21.709699,26.2299789 21.9085743,26.3093491 22.1074496,26.3093491 C22.3063249,26.3093491 22.5052001,26.2299789 22.6559103,26.0728584 C22.9588844,25.7569975 22.9588844,25.243521 22.6559103,24.9276601 L20.4574063,22.6372637 C20.1544322,22.3214028 19.6619052,22.3214028 19.3589311,22.6372637 C19.0559571,22.9531246 19.0559571,23.466601 19.3589311,23.7824619 L21.5574351,26.0728584 Z" id="Shape" transform="translate(21.007421, 24.354859) scale(1, -1) rotate(-254.000000) translate(-21.007421, -24.354859) "></path>
            </g>
            <g id="phone-call" transform="translate(27.000000, 28.000000)" stroke="#087BB4" stroke-width="2" stroke-linecap="round" stroke-linejoin="round">
                <path d="M24.132664,21.7305214 C24.1354223,22.4087295 23.8515579,23.0566707 23.3508083,23.515164 C22.8500587,23.9736573 22.1788324,24.2002104 21.5020309,24.1391656 C17.7887762,23.7364894 14.2219337,22.4701492 11.0881025,20.4418968 C8.17247785,18.5928575 5.7005371,16.1258134 3.84782787,13.2159642 C1.80845736,10.0741335 0.539315585,6.49704468 0.143220671,2.77449164 C0.0822493649,2.10112184 0.307661798,1.43318083 0.764394941,0.933831115 C1.22112808,0.434481398 1.86712311,0.149706194 2.54457843,0.149069481 L6.16471575,0.149069481 C7.376091,0.137170589 8.40859856,1.02336816 8.57814064,2.22050348 C8.7309382,3.37673272 9.01430619,4.5119995 9.42283934,5.60464856 C9.75436549,6.48485751 9.54232206,7.4771361 8.87981875,8.14576818 L7.34729395,9.67525724 C9.06511604,12.6903328 11.5665087,15.1867705 14.5875686,16.9011898 L16.1200934,15.3717007 C16.7900526,14.7105098 17.7843007,14.4988864 18.6662566,14.8297558 C19.7610744,15.2374797 20.8985945,15.5202864 22.0571186,15.6727813 C23.2705436,15.8436268 24.1630611,16.8949184 24.132664,18.1175551 L24.132664,21.7305214 Z" id="Shape"></path>
            </g>
            <circle id="Oval-7" stroke="#BE207A" stroke-width="2" transform="translate(23.000000, 62.000000) scale(-1, -1) translate(-23.000000, -62.000000) " cx="23" cy="62" r="6"></circle>
            <path d="M38.8704533,67.3385713 C54.3344263,67.3385713 66.8704533,54.8025443 66.8704533,39.3385713 C66.8704533,23.8745983 54.3344263,11.3385713 38.8704533,11.3385713 C23.4064803,11.3385713 10.8704533,23.8745983 10.8704533,39.3385713" id="Oval-2" stroke="#064765" stroke-width="2" stroke-linecap="round" transform="translate(38.870453, 39.338571) rotate(34.000000) translate(-38.870453, -39.338571) "></path>
            <path d="M38.8704533,67.3385713 C54.3344263,67.3385713 66.8704533,54.8025443 66.8704533,39.3385713 C66.8704533,23.8745983 54.3344263,11.3385713 38.8704533,11.3385713 C23.4064803,11.3385713 10.8704533,23.8745983 10.8704533,39.3385713" id="Oval-2" stroke="#064765" stroke-width="2" stroke-linecap="round" transform="translate(38.870453, 39.338571) rotate(-8.000000) translate(-38.870453, -39.338571) "></path>
            <rect id="Rectangle" x="4" y="1" width="72" height="72"></rect>
        </g>
    </g>
</svg>