<?xml version="1.0" encoding="UTF-8"?>
<svg width="47px" height="44px" viewBox="0 0 47 44" version="1.1" xmlns="http://www.w3.org/2000/svg" xmlns:xlink="http://www.w3.org/1999/xlink">
    <!-- Generator: Sketch 47.1 (45422) - http://www.bohemiancoding.com/sketch -->
    <title>Icon_FlyingS</title>
    <desc>Created with Sketch.</desc>
    <defs></defs>
    <g id="Page-1" stroke="none" stroke-width="1" fill="none" fill-rule="evenodd">
        <g id="Icon_FlyingS" fill="#ED0722">
            <path d="M10.0155219,21.8602923 C8.57163975,19.6174625 8.25608369,16.6423142 8.25608369,14.351108 C8.25608369,6.57335128 15.3663293,0 22.7784853,0 L46,0 L36.9853309,8.88791159 L22.6190016,8.88791159 C16.8434728,8.88791159 9.85603821,14.6113396 10.0155219,21.8602923 L10.0155219,21.8602923 Z M18.8707073,15.4837829 C19.469411,13.6187895 21.335456,11.2216556 23.0957471,9.9622012 C19.7372072,9.9622012 15.9496816,11.5302637 13.0576529,15.4837829 L18.8707073,15.4837829 Z M23.5144985,11.0631812 C22.1959859,12.205031 20.7529566,13.921559 20.0177962,15.4837829 L26.9830566,15.4837829 C26.2487491,13.921559 24.8040141,12.205031 23.5144985,11.0631812 L23.5144985,11.0631812 Z M12.4811235,16.6423142 C11.6163293,18.1561617 11.1916079,19.8776942 11.0397999,21.6000607 L17.550489,21.6000607 C17.550489,19.8776942 17.8668979,18.1561617 18.4459859,16.6423142 L12.4811235,16.6423142 Z M19.5777234,16.6423142 C18.9926655,18.1561617 18.7274278,19.8776942 18.5687969,21.6000607 L28.4320559,21.6000607 C28.2734251,19.8776942 28.0073345,18.1561617 27.4222766,16.6423142 L19.5777234,16.6423142 Z M33.8127132,15.4837829 C31.0486127,11.5302637 27.2627928,9.9622012 23.9537184,9.9622012 C25.6636912,11.2216556 27.4222766,13.6187895 28.1668183,15.4837829 L33.8127132,15.4837829 Z M28.5821583,16.6423142 C29.1825677,18.1561617 29.4503639,19.8776942 29.4503639,21.6000607 L35.9619058,21.6000607 C35.8527405,19.8776942 35.4135206,18.1561617 34.5188765,16.6423142 L28.5821583,16.6423142 Z M13.0576529,28.5387371 C15.9496816,32.6632419 19.7372072,34.0803367 23.0957471,34.0803367 C21.335456,32.7775103 19.469411,30.3812105 18.8707073,28.5387371 L13.0576529,28.5387371 Z M23.5144985,33.0819479 C24.8040141,31.9451026 26.2487491,30.1076337 26.9830566,28.5387371 L20.0177962,28.5387371 C20.7529566,30.1076337 22.1959859,31.9451026 23.5144985,33.0819479 L23.5144985,33.0819479 Z M18.4459859,27.5561959 C17.8668979,25.8388338 17.550489,24.14566 17.550489,22.5984494 L11.0397999,22.5984494 C11.1916079,24.2766099 11.6163293,25.9872993 12.4811235,27.5561959 L18.4459859,27.5561959 Z M27.4222766,27.5561959 C28.0073345,25.9872993 28.2734251,24.2766099 28.4320559,22.5984494 L18.5687969,22.5984494 C18.7274278,24.2766099 18.9926655,25.9872993 19.5777234,27.5561959 L27.4222766,27.5561959 Z M28.1668183,28.5387371 C27.4222766,30.3812105 25.6636912,32.7775103 23.9537184,34.0803367 C27.2627928,34.0803367 31.0486127,32.6632419 33.8127132,28.5387371 L28.1668183,28.5387371 Z M34.5188765,27.5561959 C35.4135206,25.9872993 35.8527405,24.2766099 35.9619058,22.5984494 L29.4503639,22.5984494 C29.4503639,24.14566 29.1825677,25.8388338 28.5821583,27.5561959 L34.5188765,27.5561959 Z M36.9853309,22.0187667 C37.1431089,29.5321214 30.1846714,35.2188501 24.3809984,35.2188501 L10.0155219,35.2188501 L1,44 L24.2215147,44 C31.6336707,44 38.7439163,37.4758592 38.7439163,29.6914299 C38.7439163,27.4060622 38.4641801,24.420905 36.9853309,22.1638959 L36.9853309,22.0187667 L36.9853309,22.0187667 Z" id="Fill-12"></path>
        </g>
    </g>
</svg>