<?xml version="1.0" encoding="UTF-8" standalone="no"?>
<svg width="157px" height="28px" viewBox="0 0 157 28" version="1.1" xmlns="http://www.w3.org/2000/svg" xmlns:xlink="http://www.w3.org/1999/xlink">
    <!-- Generator: Sketch 47.1 (45422) - http://www.bohemiancoding.com/sketch -->
    <title>Scotiabank_Logo</title>
    <desc>Created with Sketch.</desc>
    <defs></defs>
    <g id="01-[iOS]-First-Time-Sign-In" stroke="none" stroke-width="1" fill="none" fill-rule="evenodd">
        <g id="Input-Card-No./Username---1" transform="translate(-36.000000, -56.000000)" fill-rule="nonzero" fill="#ED0722">
            <g id="Scotiabank_Logo" transform="translate(36.000000, 56.000000)">
                <g id="Group">
                    <g transform="translate(35.466667, 4.666667)" id="Shape">
                        <path d="M29.1666667,16.9866667 C25.4333333,16.9866667 22.7266667,14.7466667 22.7266667,11.2 C22.7266667,7.7 25.5266667,5.41333333 29.1666667,5.41333333 C32.8066667,5.41333333 35.6066667,7.7 35.6066667,11.2 C35.6066667,14.7466667 32.9,16.9866667 29.1666667,16.9866667 Z M29.1666667,14.2333333 C30.7533333,14.2333333 31.64,12.88 31.64,11.2466667 C31.64,9.56666667 30.7533333,8.21333333 29.1666667,8.21333333 C27.4866667,8.21333333 26.6933333,9.56666667 26.6933333,11.2466667 C26.6933333,12.88 27.58,14.2333333 29.1666667,14.2333333 Z"></path>
                        <path d="M66.92,16.7533333 L66.92,1.12 L70.7466667,1.12 L70.7466667,6.48666667 L70.7933333,6.48666667 C71.0733333,6.3 72.3333333,5.41333333 74.1533333,5.41333333 C77.14,5.41333333 79.3333333,7.84 79.3333333,11.0133333 C79.3333333,14.98 76.9066667,16.9866667 74.1066667,16.9866667 C72.0066667,16.9866667 70.9333333,16.0066667 70.6533333,15.7266667 L70.6066667,15.7266667 L70.56,16.7533333 L66.92,16.7533333 Z M75.3666667,11.2 C75.3666667,9.70666667 74.5266667,8.4 73.0333333,8.4 C71.7266667,8.4 70.7,9.52 70.7,11.2 C70.7,12.8333333 71.54,14 73.0333333,14 C74.3866667,14.0466667 75.3666667,12.9266667 75.3666667,11.2 Z"></path>
                        <path d="M46.2466667,5.69333333 L50.12,5.69333333 L50.12,16.8 L46.2466667,16.8 L46.2466667,5.69333333 Z M48.2066667,0.0933333333 C47.04,0.0933333333 46.06,1.07333333 46.06,2.24 C46.06,3.40666667 47.04,4.38666667 48.2066667,4.38666667 C49.3733333,4.38666667 50.3533333,3.40666667 50.3533333,2.24 C50.3533333,1.07333333 49.3733333,0.0933333333 48.2066667,0.0933333333 Z"></path>
                        <path d="M95.8533333,16.7533333 L99.5866667,16.7533333 L99.5866667,11.06 C99.5866667,9.70666667 100.473333,8.82 101.593333,8.82 C102.9,8.82 103.646667,9.66 103.646667,11.06 L103.646667,16.8 L107.38,16.8 L107.38,10.08 C107.38,7.56 105.746667,5.41333333 102.806667,5.41333333 C100.846667,5.41333333 99.7733333,6.48666667 99.3066667,6.90666667 L99.2133333,6.90666667 L99.1666667,5.69333333 L95.8066667,5.69333333 L95.8066667,16.7533333 L95.8533333,16.7533333 Z"></path>
                        <polygon points="109.806667 16.8 113.633333 16.8 113.633333 11.6666667 113.68 11.6666667 117.086667 16.8 121.38 16.8 117.226667 10.92 121.286667 5.69333333 116.993333 5.69333333 113.68 10.2666667 113.633333 10.2666667 113.633333 1.16666667 109.806667 1.16666667"></polygon>
                        <path d="M21.7466667,5.88 C21.4666667,5.78666667 20.3933333,5.41333333 18.9933333,5.41333333 C15.54,5.41333333 12.9266667,7.60666667 12.9266667,11.2 C12.9266667,14.5133333 15.26,16.9866667 18.8533333,16.9866667 C20.3933333,16.9866667 21.5133333,16.5666667 21.7466667,16.52 L21.56,13.3 C21.28,13.44 20.4866667,13.86 19.6,13.86 C18.06,13.86 16.8933333,12.74 16.8933333,11.2 C16.8933333,9.56666667 18.1066667,8.54 19.6466667,8.54 C20.4866667,8.54 21.28,8.96 21.56,9.1 L21.7466667,5.88 Z"></path>
                        <path d="M64.4466667,5.69333333 L64.4466667,16.8 L60.7133333,16.8 L60.6666667,15.68 L60.5733333,15.68 C60.1533333,16.0533333 59.3133333,17.0333333 56.8866667,17.0333333 C54.2266667,17.0333333 51.8466667,14.7 51.8466667,11.2466667 C51.8466667,8.02666667 53.9466667,5.46 57.12,5.46 C59.3133333,5.46 60.1533333,6.39333333 60.5266667,6.72 L60.62,6.72 L60.6666667,5.74 L64.4466667,5.74 L64.4466667,5.69333333 Z M55.9066667,11.1066667 C55.9066667,12.9266667 56.9333333,14.0933333 58.24,14.0933333 C59.4533333,14.0933333 60.62,12.9733333 60.62,11.2466667 C60.62,9.52 59.5933333,8.35333333 58.24,8.35333333 C56.8866667,8.4 55.9066667,9.61333333 55.9066667,11.1066667 Z"></path>
                        <path d="M93.38,5.69333333 L93.38,16.8 L89.6466667,16.8 L89.6,15.68 L89.5066667,15.68 C89.0866667,16.0533333 88.2466667,17.0333333 85.82,17.0333333 C83.16,17.0333333 80.78,14.7 80.78,11.2466667 C80.78,8.02666667 82.88,5.46 86.0533333,5.46 C88.2466667,5.46 89.0866667,6.39333333 89.46,6.72 L89.5533333,6.72 L89.6,5.74 L93.38,5.74 L93.38,5.69333333 Z M84.84,11.1066667 C84.84,12.9266667 85.8666667,14.0933333 87.1733333,14.0933333 C88.3866667,14.0933333 89.5533333,12.9733333 89.5533333,11.2466667 C89.5533333,9.52 88.5266667,8.35333333 87.1733333,8.35333333 C85.82,8.35333333 84.84,9.61333333 84.84,11.1066667 Z"></path>
                        <path d="M0.513333333,16.38 C1.58666667,16.7066667 3.22,16.9866667 4.94666667,16.9866667 C8.26,16.9866667 11.5266667,15.82 11.5266667,12.2266667 C11.5266667,7.28 4.66666667,7.93333333 4.66666667,5.97333333 C4.66666667,4.94666667 5.74,4.76 6.76666667,4.76 C8.21333333,4.76 9.98666667,5.46 10.4066667,5.6 L10.7333333,2.19333333 C9.75333333,1.86666667 8.21333333,1.68 6.81333333,1.68 C3.54666667,1.68 0.373333333,2.94 0.373333333,6.16 C0.373333333,11.0133333 7.18666667,10.0333333 7.18666667,12.5533333 C7.18666667,13.5333333 6.20666667,13.9066667 4.94666667,13.9066667 C3.22,13.9066667 1.58666667,13.0666667 0.886666667,12.74 L0.513333333,16.38 Z"></path>
                        <path d="M44.38,13.7666667 C44.1933333,13.8133333 43.68,13.9533333 43.3066667,13.9533333 C42.5133333,13.9533333 41.6733333,13.58 41.6733333,12.2266667 L41.6733333,8.49333333 L44.1,8.49333333 L44.1,5.69333333 L41.6733333,5.69333333 L41.6733333,2.1 L37.8,2.1 L37.8,5.69333333 L36.12,5.69333333 L36.12,8.49333333 L37.8,8.49333333 L37.8,12.88 C37.8,15.3066667 38.92,17.0333333 41.7666667,17.0333333 C42.6066667,17.0333333 43.3533333,16.94 43.8666667,16.8 L44.38,13.7666667 Z"></path>
                    </g>
                    <path d="M5.6,13.9066667 C4.71333333,12.46 4.52666667,10.5933333 4.52666667,9.14666667 C4.52666667,4.2 8.96,0 13.5333333,0 L28,0 L22.4,5.64666667 L13.44,5.64666667 C9.84666667,5.64666667 5.50666667,9.28666667 5.6,13.9066667 L5.6,13.9066667 Z M11.1066667,9.84666667 C11.48,8.63333333 12.6466667,7.14 13.72,6.34666667 L13.72,6.34666667 C11.62,6.34666667 9.28666667,7.32666667 7.46666667,9.84666667 L11.1066667,9.84666667 Z M14,7.04666667 C13.16,7.74666667 12.2733333,8.86666667 11.8066667,9.84666667 L16.1466667,9.84666667 C15.7266667,8.86666667 14.7933333,7.74666667 14,7.04666667 L14,7.04666667 Z M7.14,10.5933333 C6.58,11.5733333 6.34666667,12.6466667 6.25333333,13.7666667 L10.3133333,13.7666667 C10.3133333,12.6933333 10.5,11.5733333 10.8733333,10.5933333 L7.14,10.5933333 Z M11.5733333,10.5933333 C11.2,11.5733333 11.06,12.6466667 10.9666667,13.7666667 L17.08,13.7666667 C16.9866667,12.6933333 16.8,11.5733333 16.4733333,10.5933333 L11.5733333,10.5933333 Z M20.44,9.84666667 C18.7133333,7.32666667 16.38,6.34666667 14.3266667,6.34666667 L14.3266667,6.34666667 C15.4,7.14 16.4733333,8.68 16.94,9.84666667 L20.44,9.84666667 Z M17.1733333,10.5933333 C17.5466667,11.5733333 17.7333333,12.6466667 17.7333333,13.7666667 L21.7933333,13.7666667 C21.7466667,12.6933333 21.4666667,11.5733333 20.9066667,10.5933333 L17.1733333,10.5933333 Z M7.51333333,18.1533333 C9.33333333,20.7666667 11.6666667,21.7 13.7666667,21.7 L13.7666667,21.7 C12.6933333,20.86 11.5266667,19.3666667 11.1533333,18.1533333 L7.51333333,18.1533333 Z M14,21.0466667 C14.7933333,20.3466667 15.68,19.1333333 16.1466667,18.1533333 L11.8066667,18.1533333 C12.2733333,19.18 13.2066667,20.3466667 14,21.0466667 L14,21.0466667 Z M10.8733333,17.5466667 C10.5,16.4733333 10.3133333,15.4 10.3133333,14.3733333 L6.25333333,14.3733333 C6.34666667,15.4466667 6.62666667,16.52 7.14,17.5466667 L10.8733333,17.5466667 Z M16.4266667,17.5466667 C16.8,16.5666667 16.94,15.4466667 17.0333333,14.3733333 L10.92,14.3733333 C11.0133333,15.4466667 11.2,16.52 11.5266667,17.5466667 L16.4266667,17.5466667 Z M16.8933333,18.1533333 C16.4266667,19.32 15.3533333,20.86 14.28,21.7 L14.28,21.7 C16.3333333,21.7 18.7133333,20.8133333 20.3933333,18.1533333 L16.8933333,18.1533333 Z M20.86,17.5466667 C21.42,16.5666667 21.7,15.4466667 21.7466667,14.3733333 L17.6866667,14.3733333 C17.6866667,15.3533333 17.5,16.4266667 17.1266667,17.5466667 L20.86,17.5466667 Z M22.4,14 C22.4933333,18.8066667 18.1533333,22.4 14.56,22.4 L5.6,22.4 L0,28 L14.4666667,28 C19.0866667,28 23.52,23.8466667 23.52,18.9 C23.52,17.4533333 23.3333333,15.54 22.4466667,14.0933333 L22.4466667,14 L22.4,14 Z" id="Shape"></path>
                </g>
            </g>
        </g>
    </g>
</svg>