<?xml version="1.0" encoding="UTF-8"?>
<svg width="64px" height="67px" viewBox="0 0 64 67" version="1.1" xmlns="http://www.w3.org/2000/svg" xmlns:xlink="http://www.w3.org/1999/xlink">
    <!-- Generator: Sketch 47.1 (45422) - http://www.bohemiancoding.com/sketch -->
    <title>Ill_Icon_Shield</title>
    <desc>Created with Sketch.</desc>
    <defs></defs>
    <g id="Page-1" stroke="none" stroke-width="1" fill="none" fill-rule="evenodd">
        <g id="Ill_Icon_Shield">
            <g id="Group" transform="translate(-8.000000, -0.500000)">
                <rect id="Rectangle" x="0" y="0" width="72" height="72"></rect>
                <path d="M35.5555556,65.1355778 C13.2893333,57.0342444 13.0171111,31.6040222 13.0171111,31.6040222 C13.0077778,30.7500222 13,29.3484667 13,28.4929111 L13,19.0740222 C13,18.2184667 13.7,17.5184667 14.5555556,17.5184667 L18.012,17.5184667" id="Stroke-1" stroke="#0B9CE5" stroke-width="2" stroke-linecap="round" stroke-linejoin="round"></path>
                <path d="M18.0123111,17.518 C30.0725333,17.518 35.4967556,10 35.4967556,10" id="Stroke-3" stroke="#0B9CE5" stroke-width="2" stroke-linecap="round" stroke-linejoin="round"></path>
                <path d="M35.5555556,65.1355778 C57.8217778,57.0342444 58.094,31.6040222 58.094,31.6040222 C58.1033333,30.7500222 58.1111111,29.3484667 58.1111111,28.4929111 L58.1111111,19.0740222 C58.1111111,18.2184667 57.4111111,17.5184667 56.5555556,17.5184667 L53.0991111,17.5184667" id="Stroke-5" stroke="#0B9CE5" stroke-width="2" stroke-linecap="round" stroke-linejoin="round"></path>
                <path d="M53.0988,17.518 C41.0385778,17.518 35.6143556,10 35.6143556,10" id="Stroke-7" stroke="#0B9CE5" stroke-width="2" stroke-linecap="round" stroke-linejoin="round"></path>
                <path d="M35.6896552,39.9414948 L35.6896552,28.7962444" id="Stroke-9" stroke="#064765" stroke-width="2" stroke-linecap="round" stroke-linejoin="round"></path>
                <path d="M35.6896552,46.9310345 L35.6896552,46.9310345" id="Stroke-9" stroke="#064765" stroke-width="3" stroke-linecap="round" stroke-linejoin="round"></path>
                <path d="M44.2803679,5.8583811 L47.2815201,5.8583811 C47.6956791,5.8583811 48.0318081,5.5081364 48.0318081,5.0765849 C48.0318081,4.64503339 47.6956791,4.29478869 47.2815201,4.29478869 L44.2803679,4.29478869 C43.8662089,4.29478869 43.5300798,4.64503339 43.5300798,5.0765849 C43.5300798,5.5081364 43.8662089,5.8583811 44.2803679,5.8583811 Z" id="Shape" fill="#BE207A" fill-rule="nonzero" transform="translate(45.780944, 5.076585) scale(1, -1) rotate(-238.000000) translate(-45.780944, -5.076585) "></path>
                <path d="M56.8803288,5.15970908 C57.0792041,5.15970908 57.2780794,5.08033891 57.4287895,4.92321836 L59.6272935,2.63282193 C59.9302676,2.31696103 59.9302676,1.80348461 59.6272935,1.48762371 C59.3243195,1.17176282 58.8317924,1.17176282 58.5288184,1.48762371 L56.3303144,3.77802014 C56.0273403,4.09388104 56.0273403,4.60735747 56.3303144,4.92321836 C56.484132,5.08033891 56.6830072,5.15970908 56.8803288,5.15970908 Z" id="Shape" fill="#BE207A" fill-rule="nonzero" transform="translate(57.978804, 3.205219) scale(1, -1) rotate(-238.000000) translate(-57.978804, -3.205219) "></path>
                <path d="M66.9928015,11.8618032 C67.4069605,11.8618032 67.7430896,11.5115585 67.7430896,11.080007 L67.7430896,7.95282213 C67.7430896,7.52127062 67.4069605,7.17102592 66.9928015,7.17102592 C66.5786425,7.17102592 66.2425135,7.52127062 66.2425135,7.95282213 L66.2425135,11.080007 C66.2425135,11.5115585 66.5786425,11.8618032 66.9928015,11.8618032 Z" id="Shape" fill="#BE207A" fill-rule="nonzero" transform="translate(66.992802, 9.516415) scale(1, -1) rotate(-238.000000) translate(-66.992802, -9.516415) "></path>
                <path d="M69.661397,22.7390683 C69.8136609,22.8961888 70.0125361,22.975559 70.2114114,22.975559 C70.4102867,22.975559 70.609162,22.8961888 70.7598721,22.7390683 C71.0628462,22.4232074 71.0628462,21.9097309 70.7598721,21.5938701 L68.5613681,19.3034736 C68.2583941,18.9876127 67.765867,18.9876127 67.462893,19.3034736 C67.1599189,19.6193345 67.1599189,20.1328109 67.462893,20.4486718 L69.661397,22.7390683 Z" id="Shape" fill="#BE207A" fill-rule="nonzero" transform="translate(69.111383, 21.021068) scale(1, -1) rotate(-238.000000) translate(-69.111383, -21.021068) "></path>
                <circle id="Oval-7" stroke="#F5C400" stroke-width="2" transform="translate(18.000000, 57.000000) scale(-1, -1) translate(-18.000000, -57.000000) " cx="18" cy="57" r="9"></circle>
            </g>
        </g>
    </g>
</svg>